simulation
nRows=36
nColumns=15
endheader
time  TH_x TH_y TH_z SC_y  SC_z  SC_x  AC_y  AC_z  AC_x  GH_y  GH_z  GH_yy  EL_x  PS_y
0.500000  0.000000  0.000000  0.000000  -35.600514  8.786125  7.142857  59.803267  24.541223  3.429931  -12.062945  30.613027  -36.845401  74.311886  115.655311
0.500146  0.000000  0.000000  0.000000  -35.600514  8.786125  15.714286  61.404920  17.069294  -1.067716  -12.062945  30.613027  -36.845401  74.311886  115.655311
0.500292  0.000000  0.000000  0.000000  -35.600514  8.786125  24.285714  62.360711  9.506032  -5.215399  -12.062945  30.613027  -36.845401  74.311886  115.655311
0.500438  0.000000  0.000000  0.000000  -35.600514  8.786125  32.857143  62.755780  1.895998  -9.182227  -12.062945  30.613027  -36.845401  74.311886  115.655311
0.500584  0.000000  0.000000  0.000000  -35.600514  8.786125  41.428571  62.624146  -5.723023  -13.114140  -12.062945  30.613027  -36.845401  74.311886  115.655311
0.500730  0.000000  0.000000  0.000000  -35.600514  8.786125  50.000000  61.954564  -13.314561  -17.152622  -12.062945  30.613027  -36.845401  74.311886  115.655311
0.500876  0.000000  0.000000  0.000000  -41.544544  19.920181  -10.000000  44.733386  13.456487  8.949297  -55.348978  73.120804  21.487129  70.587544  124.303454
0.501022  0.000000  0.000000  0.000000  -41.544544  19.920181  -1.428571  45.843105  7.359245  2.820866  -55.348978  73.120804  21.487129  70.587544  124.303454
0.501168  0.000000  0.000000  0.000000  -41.544544  19.920181  7.142857  46.287991  1.181076  -3.139974  -55.348978  73.120804  21.487129  70.587544  124.303454
0.501314  0.000000  0.000000  0.000000  -41.544544  19.920181  15.714286  46.089276  -5.009807  -9.074284  -55.348978  73.120804  21.487129  70.587544  124.303454
0.501460  0.000000  0.000000  0.000000  -41.544544  19.920181  24.285714  45.237480  -11.146241  -15.121824  -55.348978  73.120804  21.487129  70.587544  124.303454
0.501606  0.000000  0.000000  0.000000  -41.544544  19.920181  32.857143  43.692165  -17.156539  -21.427839  -55.348978  73.120804  21.487129  70.587544  124.303454
0.501752  0.000000  0.000000  0.000000  -41.544544  19.920181  41.428571  41.381764  -22.958444  -28.148983  -55.348978  73.120804  21.487129  70.587544  124.303454
0.501898  0.000000  0.000000  0.000000  -41.544544  19.920181  50.000000  38.205068  -28.452491  -35.456405  -55.348978  73.120804  21.487129  70.587544  124.303454
0.502044  0.000000  0.000000  0.000000  -37.397664  -2.951185  -10.000000  59.122204  10.949231  3.882758  -0.945757  63.406786  6.184670  28.272631  121.115474
0.502190  0.000000  0.000000  0.000000  -37.397664  -2.951185  -1.428571  59.678960  3.567747  -0.512604  -0.945757  63.406786  6.184670  28.272631  121.115474
0.502336  0.000000  0.000000  0.000000  -37.397664  -2.951185  7.142857  59.668876  -3.834333  -4.837497  -0.945757  63.406786  6.184670  28.272631  121.115474
0.502482  0.000000  0.000000  0.000000  -37.397664  -2.951185  15.714286  59.091145  -11.214261  -9.238178  -0.945757  63.406786  6.184670  28.272631  121.115474
0.502629  0.000000  0.000000  0.000000  -37.397664  -2.951185  24.285714  57.899591  -18.526353  -13.869468  -0.945757  63.406786  6.184670  28.272631  121.115474
0.502775  0.000000  0.000000  0.000000  -37.397664  -2.951185  32.857143  55.995657  -25.715667  -18.912766  -0.945757  63.406786  6.184670  28.272631  121.115474
0.502921  0.000000  0.000000  0.000000  -37.397664  -2.951185  41.428571  53.214114  -32.709326  -24.597907  -0.945757  63.406786  6.184670  28.272631  121.115474
0.503067  0.000000  0.000000  0.000000  -28.579124  9.540058  -10.000000  55.560738  24.050318  4.997444  71.902321  58.724630  -112.976630  39.634478  118.258483
0.503213  0.000000  0.000000  0.000000  -28.579124  9.540058  -1.428571  57.333157  16.902186  -0.056500  71.902321  58.724630  -112.976630  39.634478  118.258483
0.503359  0.000000  0.000000  0.000000  -28.579124  9.540058  7.142857  58.410290  9.639242  -4.736930  71.902321  58.724630  -112.976630  39.634478  118.258483
0.503505  0.000000  0.000000  0.000000  -28.579124  9.540058  15.714286  58.878171  2.315892  -9.218422  71.902321  58.724630  -112.976630  39.634478  118.258483
0.503651  0.000000  0.000000  0.000000  -28.579124  9.540058  24.285714  58.773205  -5.021461  -13.653572  71.902321  58.724630  -112.976630  39.634478  118.258483
0.503797  0.000000  0.000000  0.000000  -28.579124  9.540058  32.857143  58.087262  -12.328209  -18.189909  71.902321  58.724630  -112.976630  39.634478  118.258483
0.503943  0.000000  0.000000  0.000000  -28.579124  9.540058  41.428571  56.766593  -19.555783  -22.986051  71.902321  58.724630  -112.976630  39.634478  118.258483
0.504089  0.000000  0.000000  0.000000  -28.579124  9.540058  50.000000  54.704211  -26.644942  -28.229511  71.902321  58.724630  -112.976630  39.634478  118.258483
0.504235  0.000000  0.000000  0.000000  -32.965693  18.751372  -10.000000  47.374018  27.238218  34.735464  -22.246937  53.792297  48.506788  60.401446  121.511151
0.504381  0.000000  0.000000  0.000000  -32.965693  18.751372  -1.428571  49.902886  20.798083  28.537257  -22.246937  53.792297  48.506788  60.401446  121.511151
0.504527  0.000000  0.000000  0.000000  -32.965693  18.751372  7.142857  51.613289  14.153974  22.855583  -22.246937  53.792297  48.506788  60.401446  121.511151
0.504673  0.000000  0.000000  0.000000  -32.965693  18.751372  15.714286  52.616298  7.384020  17.500714  -22.246937  53.792297  48.506788  60.401446  121.511151
0.504819  0.000000  0.000000  0.000000  -32.965693  18.751372  24.285714  52.976487  0.552259  12.308605  -22.246937  53.792297  48.506788  60.401446  121.511151
0.504965  0.000000  0.000000  0.000000  -32.965693  18.751372  32.857143  52.716850  -6.284027  7.128485  -22.246937  53.792297  48.506788  60.401446  121.511151
0.505111  0.000000  0.000000  0.000000  -32.965693  18.751372  41.428571  51.820825  -13.068030  1.810495  -22.246937  53.792297  48.506788  60.401446  121.511151
